<svg width="24" height="24" viewBox="0 0 24 24" fill="none" xmlns="http://www.w3.org/2000/svg">
<path fill-rule="evenodd" clip-rule="evenodd" d="M19.2222 22C20.7567 22 22 20.7567 22 19.2222V4.77778C22 3.24333 20.7567 2 19.2222 2H4.77778C3.24389 2 2 3.24333 2 4.77778V19.2222C2 20.7567 3.24389 22 4.77778 22H19.2222ZM8.11079 9.22238H5.33301V18.6668H8.11079V9.22238ZM6.69801 8.11127H6.71356C7.57467 8.11127 8.11079 7.49294 8.11079 6.72183C8.09523 5.9335 7.57467 5.3335 6.72967 5.3335C5.88579 5.3335 5.33301 5.9335 5.33301 6.72183C5.33301 7.4935 5.86912 8.11127 6.69801 8.11127ZM15.8886 18.6668H18.6663L18.6658 13.2635C18.6658 10.4724 17.1752 9.22238 15.1875 9.22238C13.583 9.22238 12.9558 10.0557 12.5552 10.6757V9.22238H9.77745V18.6668H12.5552V13.6668C12.5552 13.6205 12.5545 13.5664 12.5538 13.5075C12.5501 13.2216 12.545 12.8242 12.6113 12.6629C12.8302 12.1196 13.2813 11.5574 14.1152 11.5574C15.208 11.5574 15.8886 12.3907 15.8886 13.6118V18.6668Z" fill="#8D8D96"/>
</svg>
